<svg width="56" height="65" viewBox="0 0 56 65" fill="none" xmlns="http://www.w3.org/2000/svg">
<path opacity="0.69" fill-rule="evenodd" clip-rule="evenodd" d="M55.3226 54.2143C49.8837 59.3012 43.1249 62.7752 35.8036 64.2315C28.0444 65.7749 20.0017 64.9827 12.6926 61.9552C8.2325 60.1078 4.16777 57.4786 0.677979 54.2149C0.810669 49.5513 2.13635 44.9681 4.56837 40.9188C7.90485 35.3635 13.1065 31.1744 19.2453 29.0987C16.5391 27.2316 14.5007 24.5483 13.4277 21.4405C12.3548 18.3327 12.3034 14.9633 13.2812 11.8243C14.259 8.68526 16.2147 5.94104 18.8628 3.99236C21.5108 2.04367 24.7125 0.992584 28.0003 0.992584C31.2881 0.992584 34.4898 2.04367 37.1378 3.99236C39.7859 5.94104 41.7416 8.68526 42.7194 11.8243C43.6972 14.9633 43.6459 18.3327 42.5729 21.4405C41.4999 24.5483 39.4615 27.2316 36.7553 29.0987C42.8941 31.1744 48.0958 35.3635 51.4323 40.9188C53.8642 44.9679 55.1898 49.5509 55.3226 54.2143Z" fill="white"/>
<path d="M39.25 19.1664H34.0833L31.3333 15.8331H24.6667L21.9167 19.1664H16.75C16.4185 19.1664 16.1005 19.2981 15.8661 19.5325C15.6317 19.767 15.5 20.0849 15.5 20.4164V32.9164C15.5 33.2479 15.6317 33.5659 15.8661 33.8003C16.1005 34.0347 16.4185 34.1664 16.75 34.1664H39.25C39.5815 34.1664 39.8995 34.0347 40.1339 33.8003C40.3683 33.5659 40.5 33.2479 40.5 32.9164V20.4164C40.5 20.0849 40.3683 19.767 40.1339 19.5325C39.8995 19.2981 39.5815 19.1664 39.25 19.1664Z" stroke="white" stroke-width="2" stroke-miterlimit="10" stroke-linecap="round" stroke-linejoin="round"/>
<path d="M28 31.6668C31.2217 31.6668 33.8333 29.0551 33.8333 25.8334C33.8333 22.6118 31.2217 20.0001 28 20.0001C24.7783 20.0001 22.1667 22.6118 22.1667 25.8334C22.1667 29.0551 24.7783 31.6668 28 31.6668Z" stroke="white" stroke-width="2" stroke-miterlimit="10" stroke-linecap="round" stroke-linejoin="round"/>
<path d="M37.1666 22.9166C37.3968 22.9166 37.5833 22.7301 37.5833 22.4999C37.5833 22.2698 37.3968 22.0833 37.1666 22.0833C36.9365 22.0833 36.75 22.2698 36.75 22.4999C36.75 22.7301 36.9365 22.9166 37.1666 22.9166Z" stroke="white" stroke-width="2" stroke-miterlimit="10" stroke-linecap="round" stroke-linejoin="round"/>
<path d="M28 28.3333C29.3807 28.3333 30.5 27.214 30.5 25.8333C30.5 24.4526 29.3807 23.3333 28 23.3333C26.6193 23.3333 25.5 24.4526 25.5 25.8333C25.5 27.214 26.6193 28.3333 28 28.3333Z" stroke="white" stroke-width="2" stroke-miterlimit="10" stroke-linecap="round" stroke-linejoin="round"/>
</svg>
