<svg width="87" height="93" viewBox="0 0 87 93" fill="none" xmlns="http://www.w3.org/2000/svg">
<path d="M29.3807 25.4415C28.9807 24.5415 27.6807 23.3415 27.5807 22.4415C27.1807 19.6415 28.6807 20.6415 30.5807 19.9415C31.6807 19.5415 32.6807 19.0414 33.5807 18.1414C37.4807 14.1414 35.9807 8.04147 32.0807 4.74147C26.0807 -0.458527 20.6807 3.94147 15.3807 7.74147C14.3807 7.64147 9.38071 5.74149 8.08071 5.94149C5.58071 6.24149 3.3807 7.54148 1.8807 9.44148C-1.4193 13.5415 -0.119274 19.4415 3.78073 22.7415C4.48073 23.3415 5.38069 23.8415 6.18069 24.2415C7.08069 24.6415 10.4807 24.7415 10.9807 25.4415C11.8807 26.4415 9.5807 30.5415 9.8807 32.5415C10.6807 37.6415 15.9807 40.7415 20.8807 40.2415C25.9807 39.7415 29.9807 35.5414 30.2807 30.3414C30.2807 28.4414 29.9807 26.9415 29.3807 25.4415Z" fill="#B0C929"/>
<path d="M51.3807 49.5414C50.3807 47.8414 48.2807 47.5414 47.2807 46.1414C46.2807 44.7414 47.3807 42.6414 46.6807 40.9414C45.1807 37.3414 39.8807 36.7414 36.4807 36.4414C35.6807 36.3414 35.0807 36.6414 34.5807 37.0414C32.4807 36.9414 30.4807 38.2414 29.4807 40.3414C28.6807 41.7414 28.5807 43.4414 28.9807 45.0414C29.4807 46.9414 31.5807 48.8414 30.6807 50.8414C30.0807 52.2414 28.6807 52.8414 28.3807 54.5414C28.0807 56.0414 28.5807 57.5414 29.4807 58.7414C31.6807 61.5414 36.4807 62.9414 39.8807 62.6414C45.0807 62.2414 55.0807 55.8414 51.3807 49.5414Z" fill="#B0C929"/>
<path d="M55.3808 78.2415C54.8808 77.7415 54.1808 77.3414 53.5808 76.8414C53.6808 76.3414 53.6808 75.7414 53.2808 75.1414C50.3808 70.2414 43.0808 71.0414 40.2808 75.6414C39.0808 77.6414 38.5808 80.4414 40.1808 82.3414C40.9808 83.2414 42.0808 83.7414 43.1808 83.8414C45.0808 84.0414 46.1808 83.2415 45.4808 85.7415C44.7808 88.1415 44.5808 90.4414 47.1808 91.8414C49.8808 93.2414 52.8808 91.7414 54.5808 89.5414C56.1808 87.4414 56.9808 84.5414 56.7808 81.8414C56.8808 80.5414 56.3808 79.3415 55.3808 78.2415Z" fill="#B0C929"/>
<path d="M69.7806 38.0415C67.4806 36.4415 65.1806 38.6415 65.1806 40.9415C64.9806 41.1415 64.7806 41.5415 64.6806 41.9415C64.1806 43.9415 64.1806 46.0415 63.5806 47.9415C62.6806 50.8415 62.1806 50.9415 59.5806 51.7415C56.9806 52.4415 55.2806 54.3415 54.6806 56.8415C53.0806 62.9415 55.7806 68.2414 62.3806 67.6414C69.4806 67.0414 74.4806 61.0415 76.9806 54.8415C79.7806 48.0415 75.3806 41.9415 69.7806 38.0415Z" fill="#B0C929"/>
<path d="M47.2807 23.3414C50.4807 24.0414 51.2807 24.6415 52.1807 27.9415C53.1807 31.6415 54.7807 35.0415 58.8807 35.9415C62.3807 36.6415 65.7807 35.0414 67.4807 32.0414C69.9807 27.7414 67.1807 24.3415 67.2807 19.9415C67.4807 15.0415 69.1807 11.3414 66.8807 6.6414C65.0807 2.9414 61.8807 0.141426 57.6807 0.0414264C57.2807 -0.0585736 56.7807 0.041402 56.2807 0.141402C55.7807 0.341402 55.4807 0.441402 55.0807 0.641402C53.8807 -0.158598 52.2807 0.141451 51.5807 1.94145C50.7807 4.04145 50.6807 6.94145 48.8807 8.44145C47.2807 9.84145 45.1807 9.84141 43.5807 11.3414C40.9807 13.9414 40.8807 18.0414 43.0807 20.8414C44.2807 22.0414 45.6807 22.9414 47.2807 23.3414Z" fill="#B0C929"/>
<path d="M83.2807 30.8414C83.2807 30.1414 83.4807 29.4414 83.7807 28.7414C84.1807 28.0414 84.6807 27.5414 85.1807 26.9414C86.1807 25.6414 86.4807 23.9414 86.3807 22.2414C86.2807 20.6414 85.9807 18.8414 85.3807 17.3414C84.8807 15.9414 83.7807 15.0414 82.3807 14.6414C80.9807 14.2414 79.4807 14.3414 78.1807 13.7414C77.6807 13.5414 77.2807 13.7414 77.0807 14.1414C75.4807 14.1414 73.8807 14.6414 72.7807 15.6414C70.5807 17.6414 71.7807 20.6414 73.5807 22.4414C74.5807 23.4414 75.7807 24.2414 76.6807 25.3414C77.7807 26.6414 77.9806 28.1414 77.9806 29.7414C77.9806 30.4414 77.8807 31.2414 77.5807 31.9414C77.2807 32.6414 76.5807 33.1414 76.1807 33.7414C75.2807 34.8414 74.7807 36.1414 74.7807 37.5414C74.6807 40.3414 75.9807 43.3414 78.2807 44.9414C80.4807 46.5414 83.2807 45.9414 84.5807 43.6414C86.1807 40.9414 85.0807 37.8414 84.1807 35.1414C83.6807 33.7414 83.2807 32.3414 83.2807 30.8414Z" fill="#B0C929"/>
</svg>
